<?xml version="1.0" encoding="utf-8"?>
<!-- Generator: Adobe Illustrator 22.1.0, SVG Export Plug-In . SVG Version: 6.00 Build 0)  -->
<svg version="1.1" id="Layer_1" xmlns="http://www.w3.org/2000/svg" xmlns:xlink="http://www.w3.org/1999/xlink" x="0px" y="0px"
	 viewBox="0 0 1000 550" style="enable-background:new 0 0 1000 550;" xml:space="preserve">
<style type="text/css">
	.st0{fill:#34A072;}
	.st1{font-family:'Montserrat';font-weight:700;}
	.st2{font-size:28px;}
	.st3{letter-spacing:2;}
	.st4{fill:#35495E;}
	.st5{font-size:47px;}
	.st6{letter-spacing:4;}
	.st7{font-family:'Montserrat';font-weight:800;}
	.st8{font-size:15px;}
	.st9{letter-spacing:1;}
	.st10{fill:#32A072;}
	.st11{fill:#6DBD93;}
	.st12{fill:#88C7A5;}
	.st13{fill:#86A7C9;}
	.st14{fill:#547DA4;}
	.st15{fill:#44B180;}
	.st16{fill:#45617D;}
	.st17{fill:#ADD7C2;}
	.st18{fill:#A1BDDA;}
	.st19{fill:#688FB7;}
	.st20{fill:#308C65;}
	.st21{fill:#34495F;}
</style>
<g>
	<text transform="matrix(1 0 0 1 532.0752 226.9126)" class="st0 st1 st2 st3">TOGETHER WE ARE</text>
	<text transform="matrix(1 0 0 1 461.1334 277.4126)" class="st4 st1 st5 st6">VUE.JS LONDON</text>
	<text transform="matrix(1 0 0 1 546.3246 342.9126)"><tspan x="0" y="0" class="st4 st7 st8 st9">CODE </tspan><tspan x="57.8" y="0" class="st10 st7 st8 st9">/</tspan><tspan x="64.9" y="0" class="st4 st7 st8 st9"> CREATE </tspan><tspan x="147.8" y="0" class="st10 st7 st8 st9">/</tspan><tspan x="154.9" y="0" class="st4 st7 st8 st9"> COMMUNICATE</tspan></text>
</g>
<g>
	<polygon class="st11" points="134.7,239.3 149.4,264.7 164.1,239.3 	"/>
	<polygon class="st12" points="134.7,239.3 164.1,239.3 149.4,213.8 	"/>
	<polygon class="st11" points="134.7,239.3 149.4,213.8 120,213.8 	"/>
	<polygon class="st11" points="164.1,239.3 178.8,213.8 149.4,213.8 	"/>
	<polygon class="st13" points="222.9,239.3 237.6,213.8 208.2,213.8 	"/>
	<polygon class="st14" points="222.9,239.3 208.2,264.7 237.6,264.7 	"/>
	<polygon class="st15" points="164.1,239.3 149.4,264.7 178.8,264.7 	"/>
	<polygon class="st12" points="193.5,239.3 178.8,213.8 164.1,239.3 	"/>
	<polygon class="st11" points="193.5,239.3 164.1,239.3 178.8,264.7 	"/>
	<polygon class="st15" points="193.5,239.3 178.8,264.7 208.2,264.7 	"/>
	<polygon class="st16" points="193.5,239.3 208.2,264.7 222.9,239.3 	"/>
	<polygon class="st14" points="193.5,239.3 222.9,239.3 208.2,213.8 	"/>
	<polygon class="st13" points="193.5,239.3 208.2,213.8 178.8,213.8 	"/>
	<polygon class="st14" points="252.4,239.3 237.6,213.8 222.9,239.3 	"/>
	<polygon class="st16" points="252.4,239.3 222.9,239.3 237.6,264.7 	"/>
	<polygon class="st14" points="252.4,239.3 237.6,264.7 267.1,264.7 	"/>
	<polygon class="st13" points="252.4,239.3 267.1,213.8 237.6,213.8 	"/>
	<polygon class="st12" points="122.7,169.7 108,144.2 93.3,169.7 	"/>
	<polygon class="st17" points="130.4,177.4 101,177.4 115.7,202.9 	"/>
	<polygon class="st12" points="134.7,188.3 120,213.8 149.4,213.8 	"/>
	<polygon class="st17" points="134.7,188.4 149.4,213.8 164.1,188.4 	"/>
	<polygon class="st12" points="133.1,184.2 162.5,184.2 147.8,158.7 	"/>
	<polygon class="st17" points="126.6,156.2 141.3,130.7 111.9,130.7 	"/>
	<polygon class="st17" points="84.7,138 99.4,112.5 70,112.5 	"/>
	<polygon class="st18" points="161,165.5 175.7,140 146.3,140 	"/>
	<polygon class="st19" points="222.9,188.3 208.2,213.8 237.6,213.8 	"/>
	<polygon class="st12" points="164.1,188.3 149.4,213.8 178.8,213.8 	"/>
	<polygon class="st13" points="193.5,188.4 178.8,162.9 164.1,188.4 	"/>
	<polygon class="st18" points="193.5,188.4 164.1,188.4 178.8,213.8 	"/>
	<polygon class="st19" points="193.5,188.3 178.8,213.8 208.2,213.8 	"/>
	<polygon class="st18" points="193.5,188.4 208.2,213.8 222.9,188.4 	"/>
	<polygon class="st13" points="193.5,188.4 222.9,188.4 208.2,162.9 	"/>
	<polygon class="st18" points="193.5,179 208.2,153.5 178.8,153.5 	"/>
	<polygon class="st19" points="252.4,188.3 237.6,213.8 267.1,213.8 	"/>
	<polygon class="st14" points="281.8,239.3 267.1,213.8 252.4,239.3 	"/>
	<polygon class="st16" points="281.8,239.3 252.4,239.3 267.1,264.7 	"/>
	<polygon class="st15" points="281.8,239.3 267.1,264.7 296.5,264.7 	"/>
	<polygon class="st11" points="281.8,239.3 296.5,264.7 311.2,239.3 	"/>
	<polygon class="st12" points="281.8,239.3 311.2,239.3 296.5,213.8 	"/>
	<polygon class="st13" points="281.8,239.3 296.5,213.8 267.1,213.8 	"/>
	<polygon class="st12" points="340.6,239.3 325.9,213.8 311.2,239.3 	"/>
	<polygon class="st11" points="340.6,239.3 311.2,239.3 325.9,264.7 	"/>
	<polygon class="st11" points="340.6,239.3 355.3,213.8 325.9,213.8 	"/>
	<polygon class="st11" points="311.2,239.3 325.9,213.8 296.5,213.8 	"/>
	<polygon class="st15" points="311.2,239.3 296.5,264.7 325.9,264.7 	"/>
	<polygon class="st13" points="281.8,188.4 267.1,162.9 252.4,188.4 	"/>
	<polygon class="st18" points="281.8,188.4 252.4,188.4 267.1,213.8 	"/>
	<polygon class="st19" points="281.8,188.3 267.1,213.8 296.5,213.8 	"/>
	<polygon class="st18" points="281.8,188.4 296.5,213.8 311.2,188.4 	"/>
	<polygon class="st13" points="281.8,188.4 311.2,188.4 296.5,162.9 	"/>
	<polygon class="st18" points="283.8,169.7 298.5,144.2 269.1,144.2 	"/>
	<polygon class="st12" points="343.5,169.1 328.8,143.7 314.1,169.1 	"/>
	<polygon class="st17" points="340.6,178.5 311.2,178.5 325.9,204 	"/>
	<polygon class="st12" points="340.6,188.3 325.9,213.8 355.3,213.8 	"/>
	<polygon class="st17" points="340.6,188.4 355.3,213.8 370,188.4 	"/>
	<polygon class="st12" points="346.2,179 375.6,179 360.9,153.5 	"/>
	<polygon class="st17" points="347.5,153.6 362.2,128.1 332.8,128.1 	"/>
	<polygon class="st18" points="311.2,145.8 325.9,120.3 296.5,120.3 	"/>
	<polygon class="st17" points="385.6,144.2 400.3,118.7 370.9,118.7 	"/>
	<polygon class="st12" points="311.2,188.3 296.5,213.8 325.9,213.8 	"/>
	<polygon class="st10" points="222.9,392 237.6,366.6 208.2,366.6 	"/>
	<polygon class="st20" points="252.4,392 237.6,366.6 222.9,392 	"/>
	<polygon class="st10" points="252.4,392 222.9,392 237.6,417.5 	"/>
	<polygon class="st10" points="252.4,392 267.1,366.6 237.6,366.6 	"/>
	<polygon class="st10" points="222.9,341.1 237.6,315.7 208.2,315.7 	"/>
	<polygon class="st20" points="222.9,341.1 208.2,366.6 237.6,366.6 	"/>
	<polygon class="st10" points="193.5,341.1 208.2,366.6 222.9,341.1 	"/>
	<polygon class="st15" points="193.5,341.1 222.9,341.1 208.2,315.6 	"/>
	<polygon class="st10" points="193.5,341.1 208.2,315.7 178.8,315.7 	"/>
	<polygon class="st15" points="252.4,341.1 237.6,315.6 222.9,341.1 	"/>
	<polygon class="st10" points="252.4,341.1 222.9,341.1 237.6,366.6 	"/>
	<polygon class="st20" points="252.4,341.1 237.6,366.6 267.1,366.6 	"/>
	<polygon class="st10" points="252.4,341.1 267.1,315.7 237.6,315.7 	"/>
	<polygon class="st11" points="164.1,290.2 178.8,264.7 149.4,264.7 	"/>
	<polygon class="st21" points="222.9,290.2 237.6,264.7 208.2,264.7 	"/>
	<polygon class="st15" points="222.9,290.2 208.2,315.7 237.6,315.7 	"/>
	<polygon class="st15" points="193.5,290.2 178.8,264.7 164.1,290.2 	"/>
	<polygon class="st11" points="193.5,290.2 164.1,290.2 178.8,315.7 	"/>
	<polygon class="st15" points="193.5,290.2 178.8,315.7 208.2,315.7 	"/>
	<polygon class="st11" points="193.5,290.2 208.2,315.7 222.9,290.2 	"/>
	<polygon class="st15" points="193.5,290.2 222.9,290.2 208.2,264.7 	"/>
	<polygon class="st11" points="193.5,290.2 208.2,264.7 178.8,264.7 	"/>
	<polygon class="st16" points="252.4,290.2 237.6,264.7 222.9,290.2 	"/>
	<polygon class="st21" points="252.4,290.2 222.9,290.2 237.6,315.7 	"/>
	<polygon class="st15" points="252.4,290.2 237.6,315.7 267.1,315.7 	"/>
	<polygon class="st21" points="252.4,290.2 267.1,264.7 237.6,264.7 	"/>
	<polygon class="st15" points="281.8,341.1 267.1,315.6 252.4,341.1 	"/>
	<polygon class="st10" points="281.8,341.1 252.4,341.1 267.1,366.6 	"/>
	<polygon class="st10" points="281.8,341.1 296.5,315.7 267.1,315.7 	"/>
	<polygon class="st15" points="281.8,290.2 267.1,264.7 252.4,290.2 	"/>
	<polygon class="st11" points="281.8,290.2 252.4,290.2 267.1,315.7 	"/>
	<polygon class="st15" points="281.8,290.2 267.1,315.7 296.5,315.7 	"/>
	<polygon class="st11" points="281.8,290.2 296.5,315.7 311.2,290.2 	"/>
	<polygon class="st15" points="281.8,290.2 311.2,290.2 296.5,264.7 	"/>
	<polygon class="st11" points="281.8,290.2 296.5,264.7 267.1,264.7 	"/>
	<polygon class="st11" points="311.2,290.2 325.9,264.7 296.5,264.7 	"/>
</g>
</svg>
