<svg xmlns="http://www.w3.org/2000/svg" version="1.1" xmlns:xlink="http://www.w3.org/1999/xlink" viewBox="0 0 24 24">
  <g transform="matrix(1,0,0,1,0,0)">
    <path
      d="M 5.5,23.247l4.052-9.454c0.163-0.381-0.014-0.823-0.396-0.986c-0.093-0.04-0.193-0.06-0.293-0.06H5.9 c-0.414,0.002-0.75-0.332-0.752-0.746c0-0.103,0.021-0.206,0.062-0.301L9.8,1.2c0.119-0.273,0.389-0.45,0.687-0.45h7.7 c0.414,0,0.75,0.336,0.75,0.75c0,0.17-0.058,0.336-0.165,0.469l-4.05,5.063c-0.258,0.324-0.206,0.796,0.118,1.054 c0.133,0.106,0.298,0.164,0.468,0.164h3.382c0.414,0,0.75,0.335,0.75,0.75c0,0.199-0.079,0.391-0.22,0.531L5.5,23.247z"
      stroke="#000000" fill="none" stroke-width="1.5" stroke-linecap="round" stroke-linejoin="round"></path>
  </g>
</svg>