<svg xmlns="http://www.w3.org/2000/svg" version="1.1" xmlns:xlink="http://www.w3.org/1999/xlink" viewBox="0 0 24 24">
  <g transform="matrix(1,0,0,1,0,0)">
    <path
      d="M 22.5,15.75c0,0.828-0.672,2.25-1.5,2.25s-1.5-1.422-1.5-2.25c0-0.828,0.672-1.5,1.5-1.5 S22.5,14.922,22.5,15.75z "
      stroke="#000000" fill="none" stroke-width="1.5" stroke-linecap="round" stroke-linejoin="round"></path>
    <path
      d="M 21.732,17.628c0.721,1.014,1.237,2.16,1.518,3.372c0,1.243-1.007,2.25-2.25,2.25s-2.25-1.007-2.25-2.25 c0.281-1.212,0.797-2.358,1.518-3.372 "
      stroke="#000000" fill="none" stroke-width="1.5" stroke-linecap="round" stroke-linejoin="round"></path>
    <path d="M 13.5,0.75c1.45,0,2.625,1.175,2.625,2.625S14.95,6,13.5,6s-2.625-1.175-2.625-2.625 S12.05,0.75,13.5,0.75z "
      stroke="#000000" fill="none" stroke-width="1.5" stroke-linecap="round" stroke-linejoin="round"></path>
    <path
      d="M 18.725,10.625L8.738,6.268C7.178,5.576,5.36,5.835,4.055,6.936L2.9,7.9 c-0.651,0.512-0.764,1.455-0.252,2.106s1.455,0.764,2.106,0.252c0.024-0.019,0.047-0.038,0.07-0.058l1.154-0.964 c0.434-0.367,1.04-0.453,1.559-0.221L9.3,9.787L6.923,14.3C6.809,14.516,6.75,14.756,6.75,15v3.75l-2.4,1.8 c-0.663,0.497-0.798,1.437-0.301,2.1s1.437,0.798,2.1,0.301c0,0,0.001-0.001,0.001-0.001l3-2.25c0.378-0.283,0.6-0.728,0.6-1.2 v-2.583l2.524,1.306l0.489,3.722c0.1,0.744,0.735,1.3,1.486,1.3c0.067,0,0.134-0.004,0.2-0.013c0.821-0.108,1.4-0.861,1.292-1.682 l-0.488-3.719c-0.127-0.976-0.725-1.828-1.6-2.279l-3.143-1.626l1.549-2.941l5.467,2.385c0.759,0.331,1.644-0.016,1.975-0.775 s-0.016-1.644-0.775-1.975L18.725,10.625z "
      stroke="#000000" fill="none" stroke-width="1.5" stroke-linecap="round" stroke-linejoin="round"></path>
    <path d="M 5.135,13.462c-0.417,1.173-1.705,1.786-2.878,1.37 c-1.142-0.406-1.759-1.641-1.397-2.798" stroke="#000000"
      fill="none" stroke-width="1.5" stroke-linecap="round" stroke-linejoin="round"></path>
  </g>
</svg>