<svg xmlns="http://www.w3.org/2000/svg" version="1.1" xmlns:xlink="http://www.w3.org/1999/xlink" viewBox="0 0 24 24">
  <g transform="matrix(1,0,0,1,0,0)">
    <path d="M 0.75,22.75h22.5 " stroke="#000000" fill="none" stroke-width="1.5" stroke-linecap="round"
      stroke-linejoin="round"></path>
    <path d="M 23.25,9.25H0.75 " stroke="#000000" fill="none" stroke-width="1.5" stroke-linecap="round"
      stroke-linejoin="round"></path>
    <path d="M 16.5,6.25l-3.3-4.4c-0.497-0.663-1.437-0.797-2.1-0.3 c-0.114,0.085-0.215,0.186-0.3,0.3l-3.3,4.4 "
      stroke="#000000" fill="none" stroke-width="1.5" stroke-linecap="round" stroke-linejoin="round"></path>
    <path d="M 3.75,12.25c-1.657,0-3,1.343-3,3l0,0v1.5c0,1.657,1.343,3,3,3 " stroke="#000000" fill="none"
      stroke-width="1.5" stroke-linecap="round" stroke-linejoin="round"></path>
    <path
      d="M 11.25,12.25 c-0.828,0-1.5,0.672-1.5,1.5v4.5c0,0.828,0.672,1.5,1.5,1.5s1.5-0.672,1.5-1.5v-4.5C12.75,12.922,12.078,12.25,11.25,12.25z "
      stroke="#000000" fill="none" stroke-width="1.5" stroke-linecap="round" stroke-linejoin="round"></path>
    <path d="M 5.25,12.25v6c0,0.828,0.672,1.5,1.5,1.5h1.5 " stroke="#000000" fill="none" stroke-width="1.5"
      stroke-linecap="round" stroke-linejoin="round"></path>
    <path d="M 18,12.25h-1.5c-0.828,0-1.5,0.672-1.5,1.5c0,2.25,3,2.25,3,4.5 c0,0.828-0.672,1.5-1.5,1.5H15 "
      stroke="#000000" fill="none" stroke-width="1.5" stroke-linecap="round" stroke-linejoin="round"></path>
    <path d="M 23.25,19.75h-1.5c-0.828,0-1.5-0.672-1.5-1.5v-4.5c0-0.828,0.672-1.5,1.5-1.5h1.5 " stroke="#000000"
      fill="none" stroke-width="1.5" stroke-linecap="round" stroke-linejoin="round"></path>
    <path d="M 20.25,16.75h3" stroke="#000000" fill="none" stroke-width="1.5" stroke-linecap="round"
      stroke-linejoin="round"></path>
  </g>
</svg>