<svg xmlns="http://www.w3.org/2000/svg" version="1.1" xmlns:xlink="http://www.w3.org/1999/xlink" viewBox="0 0 24 24">
  <g transform="matrix(1,0,0,1,0,0)">
    <path d="M 0.75,23.25h22.5 " stroke="#000000" fill="none" stroke-width="1.5" stroke-linecap="round"
      stroke-linejoin="round"></path>
    <path
      d="M 23.25,2.25c0-0.828-0.672-1.5-1.5-1.5H4.5C3.672,0.75,3,1.422,3,2.25v6 c0,0.828,0.672,1.5,1.5,1.5H12c0.828,0,1.5,0.672,1.5,1.5v12h9.75V2.25z "
      stroke="#000000" fill="none" stroke-width="1.5" stroke-linecap="round" stroke-linejoin="round"></path>
    <path d="M 18.75,23.25h4.5v-10.5h-3c-0.828,0-1.5,0.672-1.5,1.5 V23.25z " stroke="#000000" fill="none"
      stroke-width="1.5" stroke-linecap="round" stroke-linejoin="round"></path>
    <path d="M 6.75,9.75v3 " stroke="#000000" fill="none" stroke-width="1.5" stroke-linecap="round"
      stroke-linejoin="round"></path>
    <path d="M 7.5,3.75c0.828,0,1.5,0.672,1.5,1.5s-0.672,1.5-1.5,1.5S6,6.078,6,5.25S6.672,3.75,7.5,3.75z "
      stroke="#000000" fill="none" stroke-width="1.5" stroke-linecap="round" stroke-linejoin="round"></path>
    <path d="M 23.25,5.25 h-4.5 " stroke="#000000" fill="none" stroke-width="1.5" stroke-linecap="round"
      stroke-linejoin="round"></path>
    <path d="M 23.25,8.25h-4.5 " stroke="#000000" fill="none" stroke-width="1.5" stroke-linecap="round"
      stroke-linejoin="round"></path>
    <path
      d="M 3.094,18c0,2.071,0,5.25,3.75,5.25c3,0,3.216-2.695,3.632-4.313c0.103-0.401-0.138-0.81-0.539-0.913 C9.875,18.008,9.812,18,9.749,18H3.094z "
      stroke="#000000" fill="none" stroke-width="1.5" stroke-linecap="round" stroke-linejoin="round"></path>
    <path d="M 3.094,18L3.094,18c-1.243,0-2.25,1.007-2.25,2.25l0,0" stroke="#000000" fill="none" stroke-width="1.5"
      stroke-linecap="round" stroke-linejoin="round"></path>
  </g>
</svg>