<svg xmlns="http://www.w3.org/2000/svg" version="1.1" xmlns:xlink="http://www.w3.org/1999/xlink" viewBox="0 0 24 24">
  <g transform="matrix(1,0,0,1,0,0)">
    <path
      d="M 12,22.125V4.712c0,0-2.455-2.727-10.732-2.837c-0.137-0.002-0.269,0.052-0.366,0.15 C0.804,2.123,0.75,2.256,0.75,2.394v16.375c-0.002,0.28,0.22,0.511,0.5,0.519C9.543,19.4,12,22.125,12,22.125 "
      stroke="#000000" fill="none" stroke-width="1.5" stroke-linecap="round" stroke-linejoin="round"></path>
    <path d="M 9,11.18 c-1.702-0.572-3.469-0.927-5.26-1.055 " stroke="#000000" fill="none" stroke-width="1.5"
      stroke-linecap="round" stroke-linejoin="round"></path>
    <path d="M 9,15.375c-1.702-0.572-3.469-0.927-5.26-1.055 " stroke="#000000" fill="none" stroke-width="1.5"
      stroke-linecap="round" stroke-linejoin="round"></path>
    <path d="M 15,11.18 c1.702-0.572,3.469-0.927,5.26-1.055 " stroke="#000000" fill="none" stroke-width="1.5"
      stroke-linecap="round" stroke-linejoin="round"></path>
    <path d="M 15,15.375c1.702-0.572,3.469-0.927,5.26-1.055 " stroke="#000000" fill="none" stroke-width="1.5"
      stroke-linecap="round" stroke-linejoin="round"></path>
    <path
      d="M 12,22.125V4.712 c0,0,2.455-2.727,10.732-2.837c0.137-0.002,0.269,0.052,0.366,0.15c0.098,0.098,0.152,0.231,0.152,0.369v16.375 c0.002,0.28-0.22,0.511-0.5,0.519C14.457,19.4,12,22.125,12,22.125"
      stroke="#000000" fill="none" stroke-width="1.5" stroke-linecap="round" stroke-linejoin="round"></path>
  </g>
</svg>