<svg xmlns="http://www.w3.org/2000/svg" version="1.1" xmlns:xlink="http://www.w3.org/1999/xlink" viewBox="0 0 24 24">
  <g transform="matrix(1,0,0,1,0,0)">
    <path d="M 1.75,14.25h20.5c0.552,0,1,0.448,1,1v5l0,0H0.75l0,0v-5C0.75,14.698,1.198,14.25,1.75,14.25z "
      stroke="#000000" fill="none" stroke-width="1.5" stroke-linecap="round" stroke-linejoin="round"></path>
    <path d="M 15.25,11.25h4 c0.552,0,1,0.448,1,1v2l0,0h-6l0,0v-2C14.25,11.698,14.698,11.25,15.25,11.25z "
      stroke="#000000" fill="none" stroke-width="1.5" stroke-linecap="round" stroke-linejoin="round"></path>
    <path d="M 6.75,14.25v-6 " stroke="#000000" fill="none" stroke-width="1.5" stroke-linecap="round"
      stroke-linejoin="round"></path>
    <path d="M 6.75,0.75 c2.071,0,3.75,1.679,3.75,3.75S8.821,8.25,6.75,8.25S3,6.571,3,4.5S4.679,0.75,6.75,0.75z "
      stroke="#000000" fill="none" stroke-width="1.5" stroke-linecap="round" stroke-linejoin="round"></path>
    <path d="M 8.25,23.25h-6 " stroke="#000000" fill="none" stroke-width="1.5" stroke-linecap="round"
      stroke-linejoin="round"></path>
    <path d="M 21.75,23.25h-6" stroke="#000000" fill="none" stroke-width="1.5" stroke-linecap="round"
      stroke-linejoin="round"></path>
  </g>
</svg>