<svg xmlns="http://www.w3.org/2000/svg" version="1.1" xmlns:xlink="http://www.w3.org/1999/xlink" viewBox="0 0 24 24">
  <g transform="matrix(1,0,0,1,0,0)">
    <path d="M 1.475,21.553l5.522,1.684 " stroke="#000000" fill="none" stroke-width="1.5" stroke-linecap="round"
      stroke-linejoin="round"></path>
    <path d="M 4.236,22.395l1.688-5.535 " stroke="#000000" fill="none" stroke-width="1.5" stroke-linecap="round"
      stroke-linejoin="round"></path>
    <path
      d="M 8.324,16.864L8.324,16.864 c-1.572,0.492-3.285-0.031-4.315-1.316l0,0c-0.968-1.212-1.183-2.86-0.559-4.28l4.214-10.1C7.806,0.824,8.186,0.643,8.543,0.75 l4.275,1.3c0.357,0.112,0.57,0.476,0.494,0.842l-2.136,10.732C10.901,15.15,9.803,16.398,8.324,16.864z "
      stroke="#000000" fill="none" stroke-width="1.5" stroke-linecap="round" stroke-linejoin="round"></path>
    <path d="M 5.679,5.926l6.627,2.021 " stroke="#000000" fill="none" stroke-width="1.5" stroke-linecap="round"
      stroke-linejoin="round"></path>
    <path
      d="M 7.211,9.047c0.197,0.06,0.308,0.267,0.248,0.464c0,0.001-0.001,0.002-0.001,0.003c-0.061,0.198-0.27,0.31-0.469,0.252 c-0.197-0.06-0.307-0.268-0.248-0.464c0-0.001,0-0.001,0.001-0.002c0.061-0.198,0.27-0.31,0.469-0.252 "
      stroke="#000000" fill="none" stroke-width="1.5" stroke-linecap="round" stroke-linejoin="round"></path>
    <path
      d="M 15.461,9.047 c0.197,0.06,0.308,0.267,0.248,0.464c0,0.001-0.001,0.002-0.001,0.003c-0.061,0.198-0.27,0.31-0.469,0.252 c-0.197-0.06-0.308-0.267-0.248-0.464c0-0.001,0.001-0.002,0.001-0.003C15.053,9.101,15.262,8.989,15.461,9.047 "
      stroke="#000000" fill="none" stroke-width="1.5" stroke-linecap="round" stroke-linejoin="round"></path>
    <path
      d="M 17.711,11.3 c0.197,0.06,0.308,0.267,0.248,0.464c0,0.001-0.001,0.002-0.001,0.003c-0.061,0.198-0.27,0.31-0.469,0.252 c-0.197-0.06-0.308-0.267-0.248-0.464c0-0.001,0.001-0.002,0.001-0.003C17.303,11.354,17.512,11.242,17.711,11.3 "
      stroke="#000000" fill="none" stroke-width="1.5" stroke-linecap="round" stroke-linejoin="round"></path>
    <path
      d="M 16.211,13.547 c0.197,0.06,0.308,0.267,0.248,0.464c0,0.001-0.001,0.002-0.001,0.003c-0.061,0.198-0.27,0.31-0.469,0.252 c-0.197-0.06-0.308-0.267-0.248-0.464c0-0.001,0.001-0.002,0.001-0.003C15.803,13.601,16.012,13.489,16.211,13.547 "
      stroke="#000000" fill="none" stroke-width="1.5" stroke-linecap="round" stroke-linejoin="round"></path>
    <path
      d="M 8.711,11.3 c0.197,0.06,0.308,0.267,0.248,0.464c0,0.001-0.001,0.002-0.001,0.003c-0.061,0.198-0.27,0.31-0.469,0.252 c-0.197-0.06-0.308-0.267-0.248-0.464c0-0.001,0.001-0.002,0.001-0.003C8.303,11.354,8.512,11.242,8.711,11.3 "
      stroke="#000000" fill="none" stroke-width="1.5" stroke-linecap="round" stroke-linejoin="round"></path>
    <path
      d="M 6.461,13.547 c0.197,0.06,0.308,0.267,0.248,0.464c0,0.001-0.001,0.002-0.001,0.003c-0.061,0.198-0.27,0.31-0.469,0.252 c-0.197-0.06-0.308-0.267-0.248-0.464c0-0.001,0.001-0.002,0.001-0.003C6.053,13.601,6.262,13.489,6.461,13.547 "
      stroke="#000000" fill="none" stroke-width="1.5" stroke-linecap="round" stroke-linejoin="round"></path>
    <path d="M 16.995,23.281 l5.53-1.657 " stroke="#000000" fill="none" stroke-width="1.5" stroke-linecap="round"
      stroke-linejoin="round"></path>
    <path d="M 19.76,22.453l-1.661-5.544 " stroke="#000000" fill="none" stroke-width="1.5" stroke-linecap="round"
      stroke-linejoin="round"></path>
    <path
      d="M 15.062,0.935l0.575-0.172c0.359-0.104,0.738,0.08,0.877,0.427l4.165,10.117 c0.617,1.422,0.394,3.07-0.579,4.277l0,0c-1.036,1.281-2.751,1.797-4.322,1.3l0,0c-0.972-0.309-1.796-0.966-2.313-1.845 "
      stroke="#000000" fill="none" stroke-width="1.5" stroke-linecap="round" stroke-linejoin="round"></path>
    <path d="M 15.805,6.754l2.671-0.8" stroke="#000000" fill="none" stroke-width="1.5" stroke-linecap="round"
      stroke-linejoin="round"></path>
  </g>
</svg>