<svg xmlns="http://www.w3.org/2000/svg" version="1.1" xmlns:xlink="http://www.w3.org/1999/xlink" xmlns:svgjs="http://svgjs.com/svgjs" viewBox="0 0 24 24" height="24" width="24"><title>Exported from Streamline App (https://app.streamlineicons.com)</title><g transform="matrix(1,0,0,1,0,0)"><path d="M 19.049,6.75H4.936C4.235,6.721,3.621,7.216,3.5,7.907l-2,13.915C1.459,22.57,2.033,23.21,2.782,23.25 c0.052,0.003,0.104,0.003,0.155,0h18.111c0.748,0.045,1.39-0.524,1.436-1.271c0.003-0.052,0.003-0.104,0-0.157l-2-13.915 C20.363,7.216,19.75,6.722,19.049,6.75z " stroke="#000000" fill="none" stroke-width="1.5" stroke-linecap="round" stroke-linejoin="round"></path><path d="M 15.662,3.807c-0.339-1.77-1.884-3.051-3.686-3.057l0,0 C10.183,0.758,8.645,2.029,8.3,3.788 " stroke="#000000" fill="none" stroke-width="1.5" stroke-linecap="round" stroke-linejoin="round"></path><path d="M 15.923,12.845c-0.724-0.76-1.926-0.789-2.686-0.066c-0.022,0.021-0.044,0.043-0.066,0.066 l-1.179,1.219l-1.179-1.219c-0.724-0.76-1.927-0.789-2.686-0.065c-0.022,0.021-0.044,0.043-0.065,0.065 c-0.76,0.796-0.76,2.049,0,2.845l3.512,3.63c0.22,0.231,0.586,0.24,0.817,0.02c0.007-0.006,0.013-0.013,0.02-0.02l3.512-3.63 C16.682,14.894,16.682,13.641,15.923,12.845z" stroke="#000000" fill="none" stroke-width="1.5" stroke-linecap="round" stroke-linejoin="round"></path></g></svg>