<svg xmlns="http://www.w3.org/2000/svg" version="1.1" xmlns:xlink="http://www.w3.org/1999/xlink" xmlns:svgjs="http://svgjs.com/svgjs" viewBox="0 0 24 24" height="24" width="24"><title>video game kirby (From Streamline App : https://app.streamlineicons.com)</title><g transform="matrix(1,0,0,1,0,0)"><path d="M 19.977,16.178c-0.518,3.045-3.407,5.094-6.452,4.576s-5.094-3.407-4.576-6.452s3.407-5.094,6.452-4.576 c1.271,0.216,2.428,0.865,3.276,1.836 " stroke="#000000" fill="none" stroke-width="1.5" stroke-linecap="round" stroke-linejoin="round"></path><path d="M 12.067,13.642v1.597 " stroke="#000000" fill="none" stroke-width="1.5" stroke-linecap="round" stroke-linejoin="round"></path><path d="M 15.262,13.642v1.597 " stroke="#000000" fill="none" stroke-width="1.5" stroke-linecap="round" stroke-linejoin="round"></path><path d="M 8.884,15.609 c-0.596-0.301-1.138-0.696-1.607-1.171c-1.56-1.559-2.066-3.582-1.13-4.518s2.959-0.43,4.519,1.13l0.044,0.045 " stroke="#000000" fill="none" stroke-width="1.5" stroke-linecap="round" stroke-linejoin="round"></path><path d="M 19.977,16.178 c2.188-0.662,3.629-2.3,3.2-3.6c-0.418-1.249-2.427-1.7-4.5-1.021 " stroke="#000000" fill="none" stroke-width="1.5" stroke-linecap="round" stroke-linejoin="round"></path><path d="M 7.279,8.459L4.98,2.443L1.363,0.75L0.75,4.697l3.709,5.264 " stroke="#000000" fill="none" stroke-width="1.5" stroke-linecap="round" stroke-linejoin="round"></path><path d="M 8.689,7.708l-5.64,3.004 " stroke="#000000" fill="none" stroke-width="1.5" stroke-linecap="round" stroke-linejoin="round"></path><path d="M 6.123,18.166c0.936-0.936,2.706-0.683,3.953,0.565s1.501,3.018,0.565,3.953 c-0.936,0.936-2.706,0.683-3.953-0.565S5.187,19.102,6.123,18.166z " stroke="#000000" fill="none" stroke-width="1.5" stroke-linecap="round" stroke-linejoin="round"></path><path d="M 19.391,17.885c2.176,1.124,2.869,3.6,1.7,4.777 c-1.24,1.239-3.941,0.394-4.956-2.085 " stroke="#000000" fill="none" stroke-width="1.5" stroke-linecap="round" stroke-linejoin="round"></path><path d="M 12.118,6.793c0.222-1.252,1.424-4.615,7.936-4.315 " stroke="#000000" fill="none" stroke-width="1.5" stroke-linecap="round" stroke-linejoin="round"></path><path d="M 21.652,0.861 c0.883,0,1.598,0.715,1.598,1.598s-0.715,1.598-1.598,1.598s-1.598-0.715-1.598-1.598S20.769,0.861,21.652,0.861z " stroke="#000000" fill="none" stroke-width="1.5" stroke-linecap="round" stroke-linejoin="round"></path><path d="M 19.272,7.907 c0.161-1.581,1.038-3,2.38-3.851 " stroke="#000000" fill="none" stroke-width="1.5" stroke-linecap="round" stroke-linejoin="round"></path><path d="M 11.258,7.079c2.978-1.162,6.351-0.618,8.813,1.421" stroke="#000000" fill="none" stroke-width="1.5" stroke-linecap="round" stroke-linejoin="round"></path></g></svg>