<svg xmlns="http://www.w3.org/2000/svg" version="1.1" xmlns:xlink="http://www.w3.org/1999/xlink" xmlns:svgjs="http://svgjs.com/svgjs" viewBox="0 0 24 24" height="24" width="24"><title>Exported from Streamline App (https://app.streamlineicons.com)</title><g transform="matrix(1,0,0,1,0,0)"><path d="M 21.9,12.75v6H11.4v-6c0-0.828,0.672-1.5,1.5-1.5h7.5C21.228,11.25,21.9,11.922,21.9,12.75z " stroke="#000000" fill="none" stroke-width="1.5" stroke-linecap="round" stroke-linejoin="round"></path><path d="M 11.4,18.75h10.5 l1.171,3.513c0.131,0.393-0.082,0.818-0.475,0.949c-0.076,0.025-0.156,0.038-0.236,0.038H10.936 c-0.415-0.001-0.751-0.337-0.75-0.752c0-0.08,0.013-0.159,0.038-0.235L11.4,18.75z " stroke="#000000" fill="none" stroke-width="1.5" stroke-linecap="round" stroke-linejoin="round"></path><path d="M 6.145,0.75c1.657,0,3,1.343,3,3s-1.343,3-3,3 s-3-1.343-3-3S4.488,0.75,6.145,0.75z " stroke="#000000" fill="none" stroke-width="1.5" stroke-linecap="round" stroke-linejoin="round"></path><path d="M 9.146,9.191c-2.382-1.654-5.654-1.064-7.308,1.318C1.228,11.387,0.901,12.431,0.9,13.5v2.25 h2.25l0.75,7.5h3 " stroke="#000000" fill="none" stroke-width="1.5" stroke-linecap="round" stroke-linejoin="round"></path><path d="M 16.645,0.75c1.45,0,2.625,1.175,2.625,2.625S18.095,6,16.645,6S14.02,4.825,14.02,3.375S15.195,0.75,16.645,0.75 z " stroke="#000000" fill="none" stroke-width="1.5" stroke-linecap="round" stroke-linejoin="round"></path><path d="M 20.542,9c-1.243-2.152-3.996-2.889-6.148-1.645c-0.428,0.247-0.812,0.563-1.137,0.935" stroke="#000000" fill="none" stroke-width="1.5" stroke-linecap="round" stroke-linejoin="round"></path></g></svg>