<svg xmlns="http://www.w3.org/2000/svg" version="1.1" xmlns:xlink="http://www.w3.org/1999/xlink" viewBox="0 0 24 24">
  <g transform="matrix(1,0,0,1,0,0)">
    <path d="M 0.75,22.75h22.5 " stroke="#000000" fill="none" stroke-width="1.5" stroke-linecap="round"
      stroke-linejoin="round"></path>
    <path d="M 23.25,9.25H0.75 " stroke="#000000" fill="none" stroke-width="1.5" stroke-linecap="round"
      stroke-linejoin="round"></path>
    <path d="M 16.5,6.25l-3.3-4.4c-0.497-0.663-1.437-0.797-2.1-0.3 c-0.114,0.085-0.215,0.186-0.3,0.3l-3.3,4.4 "
      stroke="#000000" fill="none" stroke-width="1.5" stroke-linecap="round" stroke-linejoin="round"></path>
    <path d="M 7.5,19.749v-7.5 " stroke="#000000" fill="none" stroke-width="1.5" stroke-linecap="round"
      stroke-linejoin="round"></path>
    <path d="M 7.5,12.249h0.75c1.243,0,2.25,1.007,2.25,2.25 s-1.007,2.25-2.25,2.25l0,0H7.5 " stroke="#000000"
      fill="none" stroke-width="1.5" stroke-linecap="round" stroke-linejoin="round"></path>
    <path
      d="M 3,12.25c-0.828,0-1.5,0.672-1.5,1.5v4.5c0,0.828,0.672,1.5,1.5,1.5s1.5-0.672,1.5-1.5v-4.5 C4.5,12.922,3.828,12.25,3,12.25z "
      stroke="#000000" fill="none" stroke-width="1.5" stroke-linecap="round" stroke-linejoin="round"></path>
    <path d="M 16.5,19.749H15c-0.828,0-1.5-0.672-1.5-1.5v-4.5c0-0.828,0.672-1.5,1.5-1.5h1.5 " stroke="#000000"
      fill="none" stroke-width="1.5" stroke-linecap="round" stroke-linejoin="round"></path>
    <path d="M 13.5,16.749h3 " stroke="#000000" fill="none" stroke-width="1.5" stroke-linecap="round"
      stroke-linejoin="round"></path>
    <path d="M 19.5,19.749v-7.5l3,7.5v-7.5" stroke="#000000" fill="none" stroke-width="1.5" stroke-linecap="round"
      stroke-linejoin="round"></path>
  </g>
</svg>