<?xml version="1.0" encoding="utf-8"?>
<!-- Generator: Adobe Illustrator 22.1.0, SVG Export Plug-In . SVG Version: 6.00 Build 0)  -->
<svg version="1.1" id="LOGO" xmlns="http://www.w3.org/2000/svg" xmlns:xlink="http://www.w3.org/1999/xlink" x="0px" y="0px"
	 viewBox="0 0 841.9 595.3" style="enable-background:new 0 0 841.9 595.3;" xml:space="preserve">
<style type="text/css">
	.st0{fill:#FF323C;}
	.st1{fill:#FFFFFF;}
</style>
<g>
	<g>
		<path class="st0" d="M460.2,256.6c12.3,0,20.4,2.7,26.8,7.3c9.6,7.1,15.4,18.7,15.4,31.6c0,12.9-5.9,24.4-15.4,31.5
			c-6.3,4.7-14.4,7.3-26.8,7.3h-24.4l0-77.8H460.2z M481.8,278.6c-4.3-5.4-10.7-8.7-19.9-8.7h-11.1l0,51.1h11.1
			c9.2,0,15.6-3.2,19.9-8.7c3.6-4.4,5.7-10.4,5.7-16.9C487.4,289,485.3,283,481.8,278.6z"/>
		<path class="st0" d="M592.2,331.4c0,9.7-1.7,14.1-4.9,18.7c-4.9,6.8-13.6,10.8-23.9,10.8c-10.6,0-20.6-4.9-25.9-11.1l9.1-9.4
			c2.9,3.1,7.9,7.8,16.8,7.8c4.7,0,8.6-1.4,11-4.3c2.2-2.4,3.3-5.8,3.3-12.7v-0.5c-4.3,3.3-9,4.9-14.4,4.9c-8,0-15.7-3.6-20.4-9.1
			c-4.2-4.9-6.8-11.6-6.8-18.9c0-15.9,11.8-28.1,26.4-28.1c6.1,0,11.6,2,15.8,5.4v-4.3h13.9L592.2,331.4z M577.7,299.4
			c-3-4-7.8-6.7-13.3-6.7c-8.4,0-13.9,7-13.9,14.8c0,8.4,6.1,14.7,14.2,14.7c5.4,0,10.2-2.7,13-6.7L577.7,299.4z"/>
		<path class="st0" d="M612.1,255.4c4.9,0,8.8,3.7,8.8,8.6c0,4.9-4,8.6-8.8,8.6c-4.9,0-8.8-3.7-8.8-8.6
			C603.2,259.1,607.2,255.4,612.1,255.4z M619.3,334.4h-14.4l0-53.9h14.4L619.3,334.4z"/>
		<path class="st0" d="M519.3,255.4c4.9,0,8.8,3.7,8.8,8.6c0,4.9-4,8.6-8.8,8.6c-4.9,0-8.8-3.7-8.8-8.6
			C510.5,259.1,514.4,255.4,519.3,255.4z M526.5,334.4h-14.4l0-53.9h14.4L526.5,334.4z"/>
		<path class="st0" d="M663.6,334.4c-1.9,0.7-6.2,1.1-9,1.1c-8.7,0-15-2.9-18.7-7.8c-2.8-3.7-4-8.4-4-16.1l0-18.9v-12.2l0-15h14.4
			v15h15.1v12.2l-15.1,0l0,20.6c0,3.3,0.6,5.3,1.8,6.8c1.4,1.7,3.8,2.7,7.3,2.7c2.1,0,4.9-0.3,5.9-0.6L663.6,334.4z"/>
		<path class="st0" d="M724.7,334.4h-13.9V330c-4.4,3.8-9.6,5.4-15,5.4c-8,0-15.6-3.6-20.3-9.1c-4.2-4.9-6.9-11.6-6.9-18.9
			c0-15.9,11.8-28.1,26.4-28.1c6.1,0,11.6,2,15.8,5.4l0-4.3h13.9V334.4z M710.3,299.4c-3-4-7.8-6.7-13.3-6.7
			c-8.4,0-13.9,7-13.9,14.8c0,8.4,6.1,14.7,14.2,14.7c5.4,0,10.2-2.7,13-6.7V299.4z"/>
		<path class="st0" d="M751.8,334.4h-14.4l0-77.8h14.4L751.8,334.4z"/>
	</g>
</g>
<g>
	<rect x="90" y="234.1" class="st0" width="323.2" height="122.7"/>
	<polygon class="st1" points="290.5,334.4 271.7,334.4 231.6,287.3 231.6,334.4 212.8,334.4 212.8,256.6 231.6,256.6 271.7,303.6 
		271.7,256.6 290.5,256.6 	"/>
	<path class="st1" d="M351.9,256.6H313v18.8h9.9v40.1H313v18.8h38.9c21.4,0,38.9-17.4,38.9-38.9C390.8,274,373.4,256.6,351.9,256.6z
		 M351.9,315.5h-10.1v-40.1h10.1c11.1,0,20.1,9,20.1,20.1C372,306.5,363,315.5,351.9,315.5z"/>
	<path class="st1" d="M151.4,256.6c-21.4,0-38.9,17.4-38.9,38.9v38.9h18.8v-9.9h40.1v9.9h18.8v-38.9
		C190.3,274,172.9,256.6,151.4,256.6z M171.5,305.6h-40.1v-10.1c0-11.1,9-20.1,20.1-20.1c11.1,0,20.1,9,20.1,20.1V305.6z"/>
</g>
</svg>
