<?xml version="1.0" encoding="UTF-8"?>
<svg width="131px" height="24px" viewBox="0 0 131 24" version="1.1" xmlns="http://www.w3.org/2000/svg" xmlns:xlink="http://www.w3.org/1999/xlink">
    <!-- Generator: Sketch 53.2 (72643) - https://sketchapp.com -->
    <title>Attest Logo</title>
    <desc>Created with Sketch.</desc>
    <g id="Designs" stroke="none" stroke-width="1" fill="none" fill-rule="evenodd">
        <g id="Home-page" transform="translate(-128.000000, -20.000000)" fill="#163D69">
            <g id="Nav">
                <g id="Group-4" transform="translate(128.000000, 16.000000)">
                    <g id="Attest-Logo" transform="translate(0.000000, 4.000000)">
                        <g id="Logo-dark">
                            <path d="M9.6,3.97903932e-14 L14.4,-2.84217094e-14 L24,23.3174479 L0,23.3174479 L9.6,3.97903932e-14 Z M12,7.2 L8.4,17.9606771 L15.6,17.9606771 L12,7.2 Z" id="Logo"></path>
                        </g>
                        <g id="Logotype" transform="translate(32.000000, 6.000000)" fill-rule="nonzero">
                            <path d="M9.71328361,11.8662978 L8.64135927,9.36007377 L3.80945418,9.36007377 L2.73752985,11.8662978 L0,11.8662978 L4.98032538,0.264638082 L7.47048807,0.264638082 L12.4508135,11.8662978 L9.71328361,11.8662978 Z M6.2336523,3.71692024 L4.78243166,7.08621485 L7.66838179,7.08621485 L6.2336523,3.71692024 Z M25.1563235,2.50530198 L25.1563235,11.8662978 L22.583705,11.8662978 L22.583705,2.50530198 L19.3184586,2.50530198 L19.3184586,0.264638082 L28.4215699,0.264638082 L28.4215699,2.50530198 L25.1563235,2.50530198 L25.1563235,2.50530198 Z M42.512336,2.50530198 L42.512336,11.8662978 L39.9397176,11.8662978 L39.9397176,2.50530198 L36.6744711,2.50530198 L36.6744711,0.264638082 L45.7775824,0.264638082 L45.7775824,2.50530198 L42.512336,2.50530198 Z M63.2985064,0.264638082 L63.2985064,2.57169202 L57.5595884,2.57169202 L57.5595884,4.96173352 L62.7213163,4.96173352 L62.7213163,7.1692024 L57.5595884,7.1692024 L57.5595884,9.5758414 L63.4799089,9.5758414 L63.4799089,11.8662978 L54.98697,11.8662978 L54.98697,0.264638082 L63.2985064,0.264638082 Z M75.7978771,2.5790687 C75.5505099,2.78469341 75.4268263,3.05578608 75.4268263,3.39326879 C75.4268263,3.73167358 75.5779952,4 75.8803328,4.19917012 C76.1826704,4.39834025 76.8807955,4.63254956 77.974708,4.90456432 C79.0677044,5.1747349 79.9169983,5.58137391 80.5216735,6.12355924 C81.1263488,6.66574458 81.4286864,7.45689258 81.4286864,8.49700323 C81.4286864,9.53711388 81.0411446,10.3808207 80.2651446,11.0281236 C79.4909771,11.6763485 78.4712747,12 77.2069537,12 C75.3819338,12 73.7383165,11.3195021 72.2761017,9.95850622 L73.8097781,8.06639004 C75.0521109,9.16182573 76.2009939,9.70954357 77.2564271,9.70954357 C77.7291732,9.70954357 78.0993078,9.60811434 78.3695793,9.40248963 C78.6398508,9.197787 78.7745285,8.92116183 78.7745285,8.57261411 C78.7745285,8.22406639 78.6316052,7.94744122 78.3457588,7.74273859 C78.0599123,7.53803596 77.4937163,7.33056708 76.647171,7.12033195 C75.3058913,6.79944675 74.3246682,6.38266482 73.7035018,5.86629783 C73.0823354,5.3526971 72.7717522,4.54495159 72.7717522,3.4439834 C72.7717522,2.34301521 73.1657073,1.49377593 73.950869,0.89626556 C74.7369468,0.298755187 75.719086,0 76.8945381,0 C77.6641248,0 78.4337115,0.132780083 79.2032982,0.398340249 C79.9728849,0.663900415 80.6435248,1.04011065 81.2152178,1.52697095 L79.9124174,3.41908714 C78.9119547,2.65560166 77.8785097,2.27385892 76.8120824,2.27385892 C76.3833127,2.27385892 76.0452442,2.37528815 75.7978771,2.58091286 L75.7978771,2.5790687 Z M95.7338374,2.50530198 L95.7338374,11.8662978 L93.1621351,11.8662978 L93.1621351,2.50530198 L89.8968887,2.50530198 L89.8968887,0.264638082 L99,0.264638082 L99,2.50530198 L95.7347536,2.50530198 L95.7338374,2.50530198 Z" id="Shape"></path>
                        </g>
                    </g>
                </g>
            </g>
        </g>
    </g>
</svg>