<svg xmlns="http://www.w3.org/2000/svg" viewBox="0 0 225 75.99"><defs><style>.cls-1{fill:#0061ac;}.cls-2{fill:#004170;stroke:#004170;stroke-miterlimit:10;stroke-width:1.24px;}.cls-3{fill:#00abcd;}.cls-4{fill:#0ad;}.cls-5{fill:#008bd0;}.cls-6{fill:#0070b5;}</style></defs><title>Asset 4</title><g id="Layer_2" data-name="Layer 2"><g id="Navigation_and_footer" data-name="Navigation and footer"><path class="cls-1" d="M92,51.79h2.76a3.89,3.89,0,0,1,1.75.38,2.85,2.85,0,0,1,1.19,1.06,3.26,3.26,0,0,1,0,3.2,2.92,2.92,0,0,1-1.19,1.06,3.89,3.89,0,0,1-1.75.38H92Zm2.69,4.92a2.09,2.09,0,0,0,1.46-.5,2,2,0,0,0,0-2.76,2,2,0,0,0-1.46-.51H93.43v3.77Z"/><path class="cls-1" d="M99.2,51.79h1.4v6.08H99.2Z"/><path class="cls-1" d="M106.15,54.73h1.29V57.2a3.64,3.64,0,0,1-1.15.57A4.21,4.21,0,0,1,105,58a3.53,3.53,0,0,1-1.7-.4,3,3,0,0,1-1.19-1.12,3.27,3.27,0,0,1,0-3.24,3,3,0,0,1,1.2-1.12,3.57,3.57,0,0,1,1.71-.4,3.9,3.9,0,0,1,1.45.26,2.93,2.93,0,0,1,1.1.79l-.9.83a2.1,2.1,0,0,0-1.58-.69,2.18,2.18,0,0,0-1,.25,1.76,1.76,0,0,0-.7.68,2,2,0,0,0-.25,1,2,2,0,0,0,.25,1,1.86,1.86,0,0,0,.7.69,2.08,2.08,0,0,0,1,.24,2.2,2.2,0,0,0,1.09-.26Z"/><path class="cls-1" d="M108.74,51.79h1.4v6.08h-1.4Z"/><path class="cls-1" d="M112.84,52.94H110.9V51.79h5.3v1.15h-2v4.93h-1.41Z"/><path class="cls-1" d="M120.65,56.57h-2.82l-.54,1.3h-1.44l2.71-6.08H120l2.71,6.08h-1.47Zm-.44-1.07-1-2.33-1,2.33Z"/><path class="cls-1" d="M123.3,51.79h1.41v4.93h3v1.15H123.3Z"/><path class="cls-1" d="M140.19,51.79l-2,6.08h-1.51l-1.34-4.12L134,57.87h-1.5l-2-6.08h1.46l1.37,4.27,1.43-4.27H136l1.38,4.31,1.42-4.31Z"/><path class="cls-1" d="M141,51.79h1.4v6.08H141Z"/><path class="cls-1" d="M145.07,52.94h-1.94V51.79h5.3v1.15h-2v4.93h-1.41Z"/><path class="cls-1" d="M154.76,51.79v6.08h-1.41V55.38h-2.76v2.49h-1.41V51.79h1.41v2.4h2.76v-2.4Z"/><path class="cls-1" d="M162.66,56.57h-2.82l-.54,1.3h-1.44l2.7-6.08H162l2.72,6.08H163.2Zm-.45-1.07-1-2.33-1,2.33Z"/><path class="cls-1" d="M167.76,51.79h2.76a3.89,3.89,0,0,1,1.75.38,2.76,2.76,0,0,1,1.18,1.06,3.19,3.19,0,0,1,0,3.2,2.83,2.83,0,0,1-1.18,1.06,3.89,3.89,0,0,1-1.75.38h-2.76Zm2.69,4.92a2.09,2.09,0,0,0,1.46-.5,2,2,0,0,0,0-2.76,2,2,0,0,0-1.46-.51h-1.28v3.77Z"/><path class="cls-1" d="M174.94,51.79h1.4v6.08h-1.4Z"/><path class="cls-1" d="M179.19,52.92v1.61H182v1.12h-2.81v2.22h-1.41V51.79h4.6v1.13Z"/><path class="cls-1" d="M184.74,52.92v1.61h2.81v1.12h-2.81v2.22h-1.41V51.79h4.59v1.13Z"/><path class="cls-1" d="M193.58,56.74v1.13h-4.7V51.79h4.59v1.13h-3.19v1.32h2.82v1.09h-2.82v1.41Z"/><path class="cls-1" d="M198.58,57.87l-1.17-1.7h-1.3v1.7h-1.4V51.79h2.63a3.4,3.4,0,0,1,1.4.27,2.1,2.1,0,0,1,.92.76A2.15,2.15,0,0,1,200,54a2,2,0,0,1-.33,1.16,2.07,2.07,0,0,1-.92.75l1.36,2Zm-.36-4.66a1.48,1.48,0,0,0-1-.27h-1.15v2.11h1.15a1.48,1.48,0,0,0,1-.27,1,1,0,0,0,.33-.78A1,1,0,0,0,198.22,53.21Z"/><path class="cls-1" d="M205.79,56.74v1.13h-4.7V51.79h4.59v1.13h-3.2v1.32h2.83v1.09h-2.83v1.41Z"/><path class="cls-1" d="M212.49,51.79v6.08h-1.16l-3-3.69v3.69h-1.39V51.79h1.17l3,3.69V51.79Z"/><path class="cls-1" d="M215.16,57.57A3,3,0,0,1,214,56.45a3.27,3.27,0,0,1,0-3.24,3,3,0,0,1,1.18-1.12,3.49,3.49,0,0,1,1.69-.4,3.68,3.68,0,0,1,1.43.27,3,3,0,0,1,1.07.8l-.91.84a1.93,1.93,0,0,0-1.52-.72,2.07,2.07,0,0,0-1,.25,1.76,1.76,0,0,0-.69.69,2.17,2.17,0,0,0,0,2,1.76,1.76,0,0,0,.69.69,2.07,2.07,0,0,0,1,.24,1.93,1.93,0,0,0,1.52-.72l.91.84a2.78,2.78,0,0,1-1.08.8,3.76,3.76,0,0,1-3.11-.12Z"/><path class="cls-1" d="M225,56.74v1.13h-4.71V51.79h4.6v1.13h-3.2v1.32h2.82v1.09h-2.82v1.41Z"/><path class="cls-2" d="M94.93,41.82h12v2.84H91.64V17.21h3.29Z"/><path class="cls-2" d="M110.14,17.21h15.31v2.84h-12V28.2H125.1V31H113.43V41.82h12v2.84H110.14Z"/><path class="cls-2" d="M140.3,36.9l8.42-19.69h3.56l-12,27.84-12-27.84h3.56Z"/><path class="cls-2" d="M155.49,17.21H170.8v2.84h-12V28.2h11.67V31H158.78V41.82h12v2.84H155.49Z"/><path class="cls-2" d="M179.69,41.82h10.69v2.84h-14V17.21h3.29Z"/><path class="cls-2" d="M211.22,20.05l-1.92,5.86,1.76-.15a9.44,9.44,0,0,1,9.83,9.58c0,5.68-4.82,9.79-10.85,9.79a10.4,10.4,0,0,1-9-4.92l2.63-1.74a7.66,7.66,0,0,0,6.54,3.82c4.35,0,7.44-3,7.44-7s-3.25-6.66-7.36-6.66a10.82,10.82,0,0,0-5.6,1.75l4.27-13.14h11.75v2.84Z"/><ellipse class="cls-3" cx="26.37" cy="34.04" rx="2.42" ry="2.38"/><path class="cls-4" d="M25.88,28.45a2,2,0,1,1,2,2A2,2,0,0,1,25.88,28.45Z"/><ellipse class="cls-5" cx="32.05" cy="24.36" rx="1.61" ry="1.59"/><ellipse class="cls-6" cx="37.72" cy="22.87" rx="1.21" ry="1.19"/><path class="cls-1" d="M42.59,24.37a.81.81,0,1,1,.8.79A.79.79,0,0,1,42.59,24.37Z"/><path class="cls-1" d="M47.14,28.46a.4.4,0,1,1,.4.4A.4.4,0,0,1,47.14,28.46Z"/><ellipse class="cls-1" cx="49.05" cy="34.04" rx="2.42" ry="2.38"/><path class="cls-1" d="M45.52,39.62a2,2,0,1,1,2,2A2,2,0,0,1,45.52,39.62Z"/><path class="cls-6" d="M41.77,43.71a1.62,1.62,0,1,1,1.61,1.59A1.6,1.6,0,0,1,41.77,43.71Z"/><ellipse class="cls-5" cx="37.71" cy="45.2" rx="1.21" ry="1.19"/><path class="cls-4" d="M31.23,43.7a.81.81,0,1,1,.81.8A.8.8,0,0,1,31.23,43.7Z"/><path class="cls-3" d="M27.49,39.61a.4.4,0,1,1,.4.4A.4.4,0,0,1,27.49,39.61Z"/><circle class="cls-1" cx="24.49" cy="20.81" r="2.42"/><path class="cls-1" d="M26.55,17.61a2.2,2.2,0,1,1,2.2,2.2A2.2,2.2,0,0,1,26.55,17.61Z"/><path class="cls-6" d="M31.76,15.75a2,2,0,1,1,2,2A2,2,0,0,1,31.76,15.75Z"/><path class="cls-6" d="M37.29,15.37a1.76,1.76,0,1,1,1.76,1.77A1.76,1.76,0,0,1,37.29,15.37Z"/><path class="cls-5" d="M42.71,16.5A1.54,1.54,0,1,1,44.25,18,1.54,1.54,0,0,1,42.71,16.5Z"/><path class="cls-5" d="M47.61,19.05a1.32,1.32,0,1,1,1.32,1.32A1.32,1.32,0,0,1,47.61,19.05Z"/><path class="cls-5" d="M51.59,22.82a1.11,1.11,0,1,1,1.1,1.1A1.1,1.1,0,0,1,51.59,22.82Z"/><path class="cls-5" d="M54.37,27.49a.88.88,0,1,1,.88.88A.87.87,0,0,1,54.37,27.49Z"/><path class="cls-3" d="M55.72,32.69a.66.66,0,1,1,.66.66A.66.66,0,0,1,55.72,32.69Z"/><path class="cls-3" d="M55.56,38a.44.44,0,0,1,.44-.44.44.44,0,0,1,0,.88A.44.44,0,0,1,55.56,38Z"/><circle class="cls-3" cx="50.95" cy="47.26" r="2.42"/><circle class="cls-3" cx="46.69" cy="50.46" r="2.2"/><path class="cls-4" d="M39.71,52.32a2,2,0,1,1,2,2A2,2,0,0,1,39.71,52.32Z"/><path class="cls-4" d="M34.63,52.7a1.76,1.76,0,1,1,1.76,1.76A1.76,1.76,0,0,1,34.63,52.7Z"/><path class="cls-5" d="M29.64,51.57a1.55,1.55,0,1,1,1.55,1.54A1.54,1.54,0,0,1,29.64,51.57Z"/><path class="cls-5" d="M25.19,49a1.32,1.32,0,1,1,1.32,1.32A1.32,1.32,0,0,1,25.19,49Z"/><path class="cls-6" d="M21.64,45.25a1.1,1.1,0,1,1,1.1,1.1A1.1,1.1,0,0,1,21.64,45.25Z"/><path class="cls-6" d="M19.31,40.58a.88.88,0,1,1,.88.88A.87.87,0,0,1,19.31,40.58Z"/><path class="cls-1" d="M18.4,35.38a.66.66,0,1,1,1.32,0,.66.66,0,0,1-1.32,0Z"/><path class="cls-1" d="M19,30.07a.44.44,0,0,1,.44-.44.44.44,0,0,1,0,.88A.44.44,0,0,1,19,30.07Z"/><circle class="cls-3" cx="37.72" cy="7.97" r="2.42"/><circle class="cls-3" cx="43.14" cy="8.53" r="2.26"/><circle class="cls-3" cx="48.33" cy="10.22" r="2.1"/><path class="cls-4" d="M51.11,13A1.94,1.94,0,1,1,53,14.88,1.93,1.93,0,0,1,51.11,13Z"/><path class="cls-4" d="M55.32,16.59a1.78,1.78,0,1,1,1.77,1.78A1.77,1.77,0,0,1,55.32,16.59Z"/><path class="cls-5" d="M58.68,21a1.62,1.62,0,1,1,3.23,0,1.62,1.62,0,0,1-3.23,0Z"/><path class="cls-5" d="M61.06,26a1.46,1.46,0,1,1,1.46,1.46A1.45,1.45,0,0,1,61.06,26Z"/><path class="cls-5" d="M62.35,31.3a1.3,1.3,0,1,1,1.3,1.3A1.3,1.3,0,0,1,62.35,31.3Z"/><path class="cls-6" d="M62.52,36.76a1.13,1.13,0,0,1,2.26,0,1.13,1.13,0,0,1-2.26,0Z"/><path class="cls-6" d="M61.55,42.09a1,1,0,1,1,1,1A1,1,0,0,1,61.55,42.09Z"/><path class="cls-1" d="M59.49,47.07a.81.81,0,1,1,.81.81A.81.81,0,0,1,59.49,47.07Z"/><path class="cls-1" d="M56.45,51.47a.65.65,0,1,1,.64.65A.64.64,0,0,1,56.45,51.47Z"/><path class="cls-1" d="M52.56,55.12a.49.49,0,0,1,1,0,.49.49,0,1,1-1,0Z"/><circle class="cls-1" cx="37.72" cy="60.1" r="2.42"/><circle class="cls-1" cx="32.29" cy="59.54" r="2.26"/><circle class="cls-1" cx="27.11" cy="57.85" r="2.1"/><path class="cls-6" d="M20.46,55.12a1.94,1.94,0,1,1,1.93,1.94A1.92,1.92,0,0,1,20.46,55.12Z"/><path class="cls-6" d="M16.57,51.48a1.78,1.78,0,1,1,1.78,1.77A1.78,1.78,0,0,1,16.57,51.48Z"/><path class="cls-5" d="M13.53,47.07a1.62,1.62,0,0,1,3.23,0,1.62,1.62,0,1,1-3.23,0Z"/><path class="cls-5" d="M11.47,42.1a1.46,1.46,0,1,1,1.45,1.45A1.45,1.45,0,0,1,11.47,42.1Z"/><path class="cls-5" d="M10.5,36.77a1.29,1.29,0,1,1,1.29,1.29A1.3,1.3,0,0,1,10.5,36.77Z"/><path class="cls-4" d="M10.66,31.31a1.13,1.13,0,0,1,2.26,0,1.13,1.13,0,0,1-2.26,0Z"/><path class="cls-4" d="M12,26a1,1,0,0,1,1.94,0A1,1,0,1,1,12,26Z"/><path class="cls-4" d="M14.33,21a.81.81,0,1,1,.81.81A.81.81,0,0,1,14.33,21Z"/><path class="cls-3" d="M17.7,16.6a.65.65,0,1,1,.64.64A.65.65,0,0,1,17.7,16.6Z"/><path class="cls-3" d="M21.91,13a.48.48,0,0,1,.48-.49.49.49,0,0,1,.49.49.48.48,0,0,1-.49.48A.47.47,0,0,1,21.91,13Z"/><circle class="cls-1" cx="61.36" cy="10.4" r="2.42"/><circle class="cls-1" cx="64.93" cy="14.61" r="2.29"/><path class="cls-1" d="M65.59,19.35a2.17,2.17,0,1,1,2.17,2.17A2.17,2.17,0,0,1,65.59,19.35Z"/><path class="cls-1" d="M67.72,24.5a2,2,0,1,1,2,2A2,2,0,0,1,67.72,24.5Z"/><path class="cls-6" d="M69,29.9a1.91,1.91,0,1,1,1.91,1.91A1.9,1.9,0,0,1,69,29.9Z"/><path class="cls-6" d="M69.33,35.41a1.79,1.79,0,1,1,1.79,1.79A1.79,1.79,0,0,1,69.33,35.41Z"/><path class="cls-6" d="M68.78,40.89a1.66,1.66,0,1,1,1.66,1.66A1.66,1.66,0,0,1,68.78,40.89Z"/><circle class="cls-6" cx="68.87" cy="46.18" r="1.53"/><circle class="cls-5" cx="66.45" cy="51.14" r="1.4"/><circle class="cls-5" cx="63.24" cy="55.63" r="1.27"/><circle class="cls-5" cx="59.34" cy="59.53" r="1.15"/><circle class="cls-4" cx="54.85" cy="62.75" r="1.02"/><path class="cls-4" d="M49,65.18a.9.9,0,1,1,.9.89A.89.89,0,0,1,49,65.18Z"/><path class="cls-4" d="M43.83,66.75a.77.77,0,1,1,.77.77A.77.77,0,0,1,43.83,66.75Z"/><path class="cls-3" d="M38.48,67.43a.64.64,0,0,1,1.28,0,.64.64,0,0,1-1.28,0Z"/><path class="cls-3" d="M33.1,67.21a.51.51,0,0,1,.51-.51.51.51,0,0,1,0,1A.51.51,0,0,1,33.1,67.21Z"/><path class="cls-3" d="M27.82,66.09a.39.39,0,1,1,.38.38A.38.38,0,0,1,27.82,66.09Z"/><circle class="cls-3" cx="14.08" cy="57.67" r="2.42"/><circle class="cls-3" cx="10.51" cy="53.46" r="2.29"/><path class="cls-3" d="M5.51,48.72a2.17,2.17,0,1,1,2.17,2.16A2.17,2.17,0,0,1,5.51,48.72Z"/><path class="cls-3" d="M3.64,43.57a2,2,0,1,1,2,2A2,2,0,0,1,3.64,43.57Z"/><path class="cls-4" d="M2.64,38.17a1.91,1.91,0,1,1,1.91,1.91A1.9,1.9,0,0,1,2.64,38.17Z"/><path class="cls-4" d="M2.54,32.66a1.78,1.78,0,1,1,1.78,1.78A1.78,1.78,0,0,1,2.54,32.66Z"/><path class="cls-4" d="M3.34,27.18A1.66,1.66,0,1,1,5,28.84,1.66,1.66,0,0,1,3.34,27.18Z"/><circle class="cls-4" cx="6.57" cy="21.89" r="1.53"/><circle class="cls-5" cx="8.99" cy="16.93" r="1.4"/><circle class="cls-5" cx="12.2" cy="12.44" r="1.27"/><circle class="cls-5" cx="16.1" cy="8.54" r="1.15"/><circle class="cls-6" cx="20.59" cy="5.32" r="1.02"/><path class="cls-6" d="M24.66,2.89a.89.89,0,1,1,.89.89A.89.89,0,0,1,24.66,2.89Z"/><path class="cls-6" d="M30.08,1.32a.77.77,0,0,1,.76-.77.78.78,0,0,1,.77.77.77.77,0,0,1-.77.76A.76.76,0,0,1,30.08,1.32Z"/><path class="cls-1" d="M35.68.64A.64.64,0,0,1,37,.64a.64.64,0,0,1-1.28,0Z"/><path class="cls-1" d="M41.32.86a.51.51,0,1,1,.51.51A.51.51,0,0,1,41.32.86Z"/><path class="cls-1" d="M46.85,2a.39.39,0,0,1,.77,0,.39.39,0,1,1-.77,0Z"/><circle class="cls-3" cx="78.51" cy="34.04" r="2.42"/><path class="cls-3" d="M75.81,39.59a2.32,2.32,0,1,1,2.32,2.32A2.31,2.31,0,0,1,75.81,39.59Z"/><path class="cls-3" d="M74.79,45A2.21,2.21,0,1,1,77,47.26,2.21,2.21,0,0,1,74.79,45Z"/><path class="cls-3" d="M73,50.29a2.11,2.11,0,1,1,2.11,2.11A2.11,2.11,0,0,1,73,50.29Z"/><path class="cls-4" d="M70.57,55.23a2,2,0,1,1,2,2A2,2,0,0,1,70.57,55.23Z"/><path class="cls-4" d="M67.47,59.77a1.9,1.9,0,1,1,1.89,1.9A1.89,1.89,0,0,1,67.47,59.77Z"/><circle class="cls-4" cx="65.56" cy="63.84" r="1.79"/><path class="cls-4" d="M59.56,67.35A1.69,1.69,0,1,1,61.25,69,1.69,1.69,0,0,1,59.56,67.35Z"/><circle class="cls-5" cx="56.5" cy="70.25" r="1.58"/><circle class="cls-5" cx="51.4" cy="72.47" r="1.47"/><path class="cls-5" d="M44.67,74A1.37,1.37,0,1,1,46,75.34,1.37,1.37,0,0,1,44.67,74Z"/><circle class="cls-5" cx="40.53" cy="74.73" r="1.26"/><path class="cls-6" d="M33.8,74.73A1.16,1.16,0,1,1,35,75.89,1.16,1.16,0,0,1,33.8,74.73Z"/><circle class="cls-6" cx="29.44" cy="73.98" r="1.05"/><circle class="cls-6" cx="24.08" cy="72.48" r="0.95"/><circle class="cls-6" cx="18.97" cy="70.27" r="0.84"/><path class="cls-6" d="M13.48,67.37a.74.74,0,1,1,.74.74A.74.74,0,0,1,13.48,67.37Z"/><circle class="cls-1" cx="9.9" cy="63.86" r="0.63"/><circle class="cls-1" cx="6.1" cy="59.8" r="0.53"/><path class="cls-1" d="M2.46,55.26a.43.43,0,1,1,.42.42A.42.42,0,0,1,2.46,55.26Z"/><path class="cls-1" d="M0,50.33a.32.32,0,1,1,.63,0,.31.31,0,0,1-.31.31A.31.31,0,0,1,0,50.33Z"/></g></g></svg>