<?xml version="1.0" encoding="UTF-8"?>
<svg width="205px" height="40px" viewBox="0 0 205 40" version="1.1" xmlns="http://www.w3.org/2000/svg" xmlns:xlink="http://www.w3.org/1999/xlink">
    <!-- Generator: Sketch 44.1 (41455) - http://www.bohemiancoding.com/sketch -->
    <title>white-full</title>
    <desc>Created with Sketch.</desc>
    <defs>
        <path d="M21.7521952,42.9285187 L0.97823544,42.4945689 L0.955965662,23.649131 C4.6847438,23.9120355 11.7569579,22.28513 18.5302843,17.2285288 C14.9624191,16.5023692 13.7900265,15.6484524 13.6947622,14.6164827 C13.6312527,13.9285029 14.596107,13.3221468 16.5893252,12.7974143 L30.6739757,10.0106549 C29.835765,18.4388659 29.328377,23.2049183 29.1518117,24.3088123 C28.8869636,25.9646531 28.4166342,27.5444796 27.4315977,27.3555478 C26.4465612,27.1666159 25.2852282,25.8297198 24.4388502,22.6427319 C19.8603819,30.2026732 19.2676524,37.0304925 19.4918297,40.6341211 L19.5694926,41.5371693 C21.6324816,41.5371693 40.7620029,39.0828947 40.7620029,37.0213506 L40.7620029,4.63393807 C40.7620029,2.56691298 39.088621,0.894976039 37.025632,0.894976039 L4.63712315,0.894976039 C2.62461656,0.894976039 0.981602208,2.48608781 0.902396522,4.48292214 L0.902396522,0.894976039 L40.7620029,0.894976039 L40.7620029,40.7575721 L30.8269892,41.4421175 L16.2991437,42.9354582 L0.959275711,42.0603197 L0.902396522,0.892982909 L40.7669857,0.892982909 L40.7669857,40.7575721 L30.8644244,42.2995243 L21.7521952,42.9285187 Z" id="path-1"></path>
        <path d="M13.4115872,28.2525358 C13.2325572,28.8227921 11.7347779,32.3811503 11.5036577,40.0806708 L4.69108317,40.8064437 C2.6792979,40.8064437 1.03690083,39.2160346 0.957710482,37.2282776 L0.957710482,29.9986909 C8.97098191,29.7747181 12.8513471,28.457159 13.4115872,28.2525358 Z" id="path-3"></path>
    </defs>
    <g id="Page-1" stroke="none" stroke-width="1" fill="none" fill-rule="evenodd">
        <g id="white-full">
            <g id="New-text,-New-logo" transform="translate(-0.004622, -0.856506)">
                <g id="Gotham-Modified" transform="translate(0.000000, 5.730804)" fill="#FFFFFF">
                    <g id="Group-3" transform="translate(0.000000, 0.013723)">
                        <g id="Group-5" transform="translate(0.053223, 0.047302)">
                            <path d="M10.8514804,16.0496878 C12.747144,16.0496878 14.2433419,15.575779 15.3401187,14.6279471 C16.4368956,13.6801153 16.9852757,12.4614926 16.9852757,10.9720426 L16.9852757,10.8908003 C16.9852757,9.21178387 16.4301254,7.94577033 15.3198081,7.09272167 C14.2094908,6.23967302 12.7200631,5.81315509 10.8514804,5.81315509 L5.04265428,5.81315509 L5.04265428,16.0496878 L10.8514804,16.0496878 Z M0.0462514265,1.26358501 L11.257692,1.26358501 C12.9096275,1.26358501 14.4058253,1.48699916 15.7463303,1.93383417 C17.0868354,2.38066918 18.2242165,3.02383114 19.1585079,3.86333934 C20.0927993,4.70284754 20.8104326,5.70482617 21.3114294,6.86930529 C21.8124263,8.0337844 22.0629209,9.33364857 22.0629209,10.7689368 L22.0629209,10.8501791 C22.0629209,12.4479528 21.7650354,13.8493688 21.1692554,15.0544693 C20.5734754,16.2595698 19.7610603,17.2683186 18.7319857,18.0807458 C17.7029111,18.8931731 16.4978287,19.5092546 15.1167023,19.9290087 C13.7355759,20.3487628 12.2596885,20.5586367 10.6889957,20.5586367 L5.04265428,20.5586367 L5.04265428,29.698398 L0.0462514265,29.698398 L0.0462514265,1.26358501 Z M24.9184787,8.25042478 L29.8336393,8.25042478 L29.8336393,13.084343 C30.510662,11.4594884 31.4720199,10.1596242 32.7177417,9.18471149 C33.9634636,8.20979874 35.5341328,7.76297043 37.4297965,7.84421316 L37.4297965,13.0437218 L37.1454483,13.0437218 C36.0622119,13.0437218 35.0737736,13.2197451 34.1801035,13.5717969 C33.2864335,13.9238488 32.5146392,14.4519186 31.8646973,15.1560222 C31.2147555,15.8601259 30.7137662,16.7470124 30.3617144,17.8167083 C30.0096625,18.8864042 29.8336393,20.1253373 29.8336393,21.5335446 L29.8336393,29.698398 L24.9184787,29.698398 L24.9184787,8.25042478 Z M50.27816,25.92063 C51.2801536,25.92063 52.1805804,25.7378366 52.9794672,25.3722443 C53.7783541,25.006652 54.4621368,24.5124329 55.0308359,23.8895719 C55.599535,23.266711 56.032823,22.5423075 56.330713,21.7163398 C56.628603,20.890372 56.7775458,20.0170258 56.7775458,19.0962749 L56.7775458,19.0150326 C56.7775458,18.0672007 56.6150628,17.1735441 56.2900919,16.3340359 C55.965121,15.4945277 55.5115225,14.7633541 54.929283,14.1404932 C54.3470434,13.5176323 53.6564906,13.0234131 52.8576037,12.6578208 C52.0587169,12.2922285 51.1718304,12.1094351 50.1969177,12.1094351 C49.2220049,12.1094351 48.3351184,12.2922285 47.5362316,12.6578208 C46.7373448,13.0234131 46.053562,13.5108621 45.4848629,14.1201826 C44.9161638,14.7295031 44.4828758,15.4539065 44.1849858,16.2934147 C43.8870958,17.1329229 43.738153,18.0130393 43.738153,18.9337902 L43.738153,19.0150326 C43.738153,19.9628644 43.900636,20.8497509 44.2256069,21.6757186 C44.5505778,22.5016864 45.0041763,23.23286 45.5864158,23.8692613 C46.1686554,24.5056627 46.8592082,25.006652 47.6580951,25.3722443 C48.4569819,25.7378366 49.3303281,25.92063 50.27816,25.92063 Z M50.1969177,30.185852 C48.5720631,30.185852 47.062325,29.8947365 45.6676582,29.312497 C44.2729913,28.7302574 43.0679089,27.9381527 42.0523748,26.936159 C41.0368407,25.9341654 40.244736,24.7561635 39.6760368,23.402118 C39.1073377,22.0480725 38.8229925,20.6128058 38.8229925,19.0962749 L38.8229925,19.0150326 C38.8229925,17.4714207 39.1141079,16.0226138 39.6963474,14.6685683 C40.278587,13.3145228 41.0774618,12.1297508 42.092996,11.1142167 C43.1085301,10.0986825 44.3136125,9.29303756 45.7082793,8.69725755 C47.1029462,8.10147754 48.6262245,7.803592 50.27816,7.803592 C51.9300955,7.803592 53.4533738,8.09470741 54.8480406,8.67694697 C56.2427075,9.25918653 57.4477899,10.0580614 58.463324,11.0735955 C59.4788581,12.0891296 60.2709629,13.2671315 60.839662,14.6076365 C61.4083611,15.9481416 61.6927064,17.3901784 61.6927064,18.9337902 L61.6927064,19.0150326 C61.6927064,20.5315635 61.4015909,21.9668302 60.8193514,23.3208757 C60.2371118,24.6749212 59.438237,25.8596932 58.4227029,26.8752273 C57.4071687,27.8907614 56.1953162,28.6964064 54.7871089,29.2921864 C53.3789016,29.8879664 51.8488532,30.185852 50.1969177,30.185852 Z" id="Pro"></path>
                            <path d="M74.6387804,25.8657365 C75.6407741,25.8657365 76.5412008,25.6829431 77.3400876,25.3173509 C78.1389745,24.9517586 78.8227572,24.4575394 79.3914563,23.8346785 C79.9601554,23.2118175 80.3934434,22.4874141 80.6913335,21.6614463 C80.9892235,20.8354786 81.1381662,19.9621323 81.1381662,19.0413814 L81.1381662,18.9601391 C81.1381662,18.0123073 80.9756832,17.1186506 80.6507123,16.2791424 C80.3257414,15.4396342 79.8721429,14.7084606 79.2899034,14.0855997 C78.7076638,13.4627388 78.017111,12.9685196 77.2182241,12.6029273 C76.4193373,12.237335 75.5324508,12.0545417 74.5575381,12.0545417 C73.5826253,12.0545417 72.6957388,12.237335 71.896852,12.6029273 C71.0979652,12.9685196 70.4141824,13.4559687 69.8454833,14.0652891 C69.2767842,14.6746096 68.8434962,15.3990131 68.5456062,16.2385213 C68.2477162,17.0780295 68.0987734,17.9581458 68.0987734,18.8788968 L68.0987734,18.9601391 C68.0987734,19.9079709 68.2612564,20.7948574 68.5862273,21.6208252 C68.9111983,22.4467929 69.3647967,23.1779665 69.9470362,23.8143679 C70.5292758,24.4507693 71.2198286,24.9517586 72.0187155,25.3173509 C72.8176023,25.6829431 73.6909486,25.8657365 74.6387804,25.8657365 Z M81.1810976,9.67292793 C80.5722065,9.26711028 79.9147293,8.91681984 79.2086611,8.62205351 C77.8139942,8.03981395 76.2907159,7.74869854 74.6387804,7.74869854 C72.9868449,7.74869854 71.4635666,8.04658408 70.0688997,8.64236409 C68.6742329,9.2381441 67.4691505,10.0437891 66.4536164,11.0593232 C65.4380823,12.0748573 64.6392074,13.2596293 64.0569678,14.6136748 C63.4747283,15.9677203 63.1836129,17.4165272 63.1836129,18.9601391 L63.1836129,19.0413814 C63.1836129,20.5579124 63.4679582,21.993179 64.0366573,23.3472245 C64.6053564,24.70127 65.3974611,25.8792719 66.4129952,26.8812656 C67.4285293,27.8832592 68.6336117,28.675364 70.0282786,29.2576035 C71.4229454,29.8398431 72.9326835,30.1309585 74.5575381,30.1309585 C76.2094736,30.1309585 77.739522,29.833073 79.1477293,29.2372929 C79.8783767,28.9281729 80.5561644,28.5625563 81.1810976,28.1404397 L81.1810976,29.6845348 L86.0666157,29.6845348 L86.0666157,0.0461397364 L81.1810976,0.0461397364 L81.1810976,9.67292793 Z" id="Combined-Shape"></path>
                            <path d="M91.3706835,29.6773402 L91.3700971,1.29636638 L101.760432,1.29636638 C108.383473,1.29636638 112.375721,4.85277208 112.375721,10.121721 C112.375721,15.9370794 107.632236,19.3774901 101.253638,19.3774901 L94.3492838,19.3774901 L94.3492838,29.6773402 L91.3706835,29.6773402 Z M94.3570649,16.5499166 L101.376809,16.5499166 C105.790831,16.5499166 109.404433,14.3772823 109.404433,10.3182401 L109.404433,10.2401816 C109.404433,5.90793478 105.876119,4.1178455 101.603444,4.1178455 L94.349525,4.1178455 L94.3570649,16.5499166 Z M122.008105,30.0336875 C117.492368,30.0336875 113.721024,27.3660623 113.721024,23.216117 L113.721024,23.1367411 C113.721024,18.929816 117.079353,16.0804869 123.039992,16.0804869 C125.661863,16.0804869 127.345897,16.336568 129.275345,16.8184457 L129.275345,16.5485376 C129.275345,12.4606765 126.660814,10.8300944 123.07968,10.8300944 C120.619026,10.8300944 118.374874,11.6023143 116.488629,12.636297 L115.401635,10.0424459 C117.624161,9.0105586 119.868307,8.05817886 123.198744,8.05817886 C126.529181,8.05817886 128.496067,9.00056538 129.964522,10.4690204 C131.313913,11.8184114 132.122849,13.7832326 132.122849,16.4691617 L132.122849,29.6773402 L129.275345,29.6773402 L129.275345,27.0253211 C127.901658,28.5776047 125.303469,30.0623895 122.008105,30.0336875 Z M122.127169,27.2694794 C125.730835,27.2694794 129.313078,25.0735553 129.313078,21.5095342 L129.313078,19.5727226 C127.522202,19.1765072 125.796206,18.763227 122.920928,18.763227 C118.716735,18.763227 116.723033,20.6207562 116.723033,23.0176772 L116.723033,23.0970531 C116.723033,25.6164385 119.146228,27.2694794 122.127169,27.2694794 Z M145.273381,30.0324051 C140.329095,30.0324051 135.122703,26.0937872 135.122703,19.2155365 C135.122703,12.4671405 140.044311,8.2460858 145.273381,8.2460858 C148.373086,8.2460858 151.011545,9.55650294 152.995301,12.0336156 L152.995301,0.124964495 L155.857572,0.124964495 L155.857572,29.6773402 L152.995301,29.6773402 L152.995301,26.1053008 C151.085647,28.4215442 148.717892,30.0324051 145.273381,30.0324051 Z M145.468527,27.2511587 C149.605628,27.2511587 153.113124,23.6980402 153.113124,19.1765072 L153.113124,19.0984487 C153.113124,14.4126038 149.451213,11.0215346 145.468527,11.0215346 C141.13628,11.0215346 138.133089,14.2850271 138.133089,19.0594195 L138.133089,19.137478 C138.133089,23.7667941 141.292397,27.2511587 145.468527,27.2511587 Z" id="Pad"></path>
                        </g>
                    </g>
                </g>
                <g id="Group-4" transform="translate(164.102296, 0.000000)">
                    <g id="Group" transform="translate(0.007815, 0.000000)">
                        <mask id="mask-2" fill="white">
                            <use xlink:href="#path-1"></use>
                        </mask>
                        <g id="path-3" transform="translate(20.834691, 21.914221) rotate(2.500000) translate(-20.834691, -21.914221) "></g>
                        <path d="M9.20502052,2.13031588 C13.0662337,1.32206323 16.9395227,0.917936898 20.8248876,0.917936898 C24.7266995,0.917936898 28.6285921,1.32549187 32.5305654,2.14060181 L32.5305654,2.14060178 C36.0417618,2.87407965 38.7912529,5.60725626 39.5456139,9.11402527 C40.3741291,12.9655123 40.7883867,16.8392517 40.7883867,20.7352435 C40.7883867,24.6733557 40.3651234,28.6116185 39.5185969,32.5500319 L39.5185969,32.5500319 C38.7694166,36.0355476 36.0484659,38.7593072 32.5637251,39.5120836 C28.642983,40.3590453 24.7323643,40.7825261 20.8318688,40.7825261 C16.9445394,40.7825261 13.0572767,40.3618994 9.17008046,39.5206458 L9.17008047,39.5206458 C5.68730864,38.7669164 2.9681678,36.0443369 2.21884055,32.5606153 C1.36703351,28.6004516 0.941129995,24.6609939 0.941129995,20.7422422 C0.941129995,16.8619817 1.35870791,12.9818555 2.19386374,9.10186385 L2.19386371,9.10186384 C2.94829269,5.59691536 5.69585417,2.86487595 9.20502052,2.13031588 Z" id="Rectangle" fill="#FFFFFF" mask="url(#mask-2)"></path>
                    </g>
                    <mask id="mask-4" fill="white">
                        <use xlink:href="#path-3"></use>
                    </mask>
                    <g id="path-5"></g>
                    <path d="M9.1962361,2.13091467 C13.0600766,1.32226282 16.9360042,0.917936898 20.8240189,0.917936898 C24.7284798,0.917936898 28.6330214,1.32569062 32.5376437,2.14119808 L32.5376437,2.14119809 C36.0486945,2.87450541 38.7982093,5.60734912 39.552856,9.11387528 C40.3817531,12.9654117 40.7962017,16.8392011 40.7962017,20.7352435 C40.7962017,24.6733981 40.3727452,28.6117033 39.5258321,32.5501591 L39.5258322,32.5501591 C38.7763678,36.0354427 36.0553821,38.7588772 32.5707741,39.5114764 C28.6473846,40.3588429 24.7341276,40.7825261 20.8310032,40.7825261 C16.9410441,40.7825261 13.0511516,40.3616962 9.16132581,39.5200365 L9.16132582,39.5200365 C5.67868958,38.7664822 2.95951663,36.0442288 2.209906,32.5607416 C1.35771033,28.6005354 0.931612498,24.6610356 0.931612498,20.7422422 C0.931612498,16.8619321 1.34938273,12.9817563 2.18492319,9.10171505 L2.18492323,9.10171506 C2.93963714,5.59701211 5.68721855,2.86530667 9.1962361,2.13091467 Z" id="Rectangle" fill="#FFFFFF" mask="url(#mask-4)"></path>
                </g>
            </g>
        </g>
    </g>
</svg>