<svg xmlns="http://www.w3.org/2000/svg" width="230" height="62" viewBox="0 0 498 121"> <g fill="#09b3af"> <path d="M60.8 60H40v10h20.3c1.2 0 2.3-.5 3.2-1.3.8-.8 1.3-2 1.3-3.5a6 6 0 0 0-1.1-3.6c-.8-1-1.7-1.6-2.9-1.6zM61.5 47.9c.9-.6 1.3-1.9 1.3-3.6 0-1.5-.4-2.6-1.1-3.3-.7-.6-1.6-1-2.6-1H40v9h18.7c1 0 2-.5 2.8-1.1z"></path> <path d="M92 11H13.5C11 11 9 13 9 15.4V94c0 2.4 2 3.9 4.4 3.9H25v15.7L39.4 98H92c2.4 0 3.9-1.5 3.9-4V15.5c0-2.4-1.5-4.4-4-4.4zM78.8 74.7c-1 1.8-2.5 3.3-4.3 4.4-1.9 1.2-4 2.3-6.4 2.8-2.4.6-5 1.1-7.7 1.1H25V27h40.2c2 0 3.7.4 5.3 1.3 1.5.8 2.9 1.9 4 3.2a15 15 0 0 1 3.4 9.7c0 2.6-.7 5.1-2 7.5a12.5 12.5 0 0 1-6 5.4c3.2.9 5.7 2.5 7.6 4.8 1.8 2.4 2.7 5.5 2.7 9.4 0 2.5-.5 4.6-1.5 6.4z"></path> </g> <g fill="#000"> <path d="M150.1 82.6c-3.5 0-6.9-.5-10.3-1.6a23.5 23.5 0 0 1-8.6-5l4.5-7.6c2.5 1.7 4.9 3 7.3 4 2.3 1 4.6 1.4 6.8 1.4 1.6 0 2.9-.3 3.8-.9.9-.5 1.3-1.4 1.3-2.5 0-1-.5-2-1.7-2.6a26 26 0 0 0-5.9-2l-7-2.3c-1.9-.8-3.4-1.6-4.6-2.5-1.2-.8-2.1-1.9-2.6-3a9.8 9.8 0 0 1-.8-4 13 13 0 0 1 4.7-10.2c1.4-1.2 3.2-2.1 5.2-2.8 2-.7 4.2-1 6.5-1 3.1 0 6 .4 8.7 1.2 2.7.9 5.3 2.4 7.8 4.6l-4.9 7.5a33.3 33.3 0 0 0-6.2-3.5c-1.9-.8-3.6-1.1-5.4-1.1-1.3 0-2.5.2-3.4.8-1 .5-1.4 1.4-1.4 2.6 0 1.2.5 2 1.5 2.6s3 1.2 5.7 1.9a71 71 0 0 1 7.4 2.3c2 .8 3.6 1.7 4.9 2.6a8.9 8.9 0 0 1 3.6 7.8c0 4.1-1.5 7.3-4.6 9.7-3 2.4-7 3.6-12.3 3.6zM199.6 79.7c-1.7.7-3.7 1.4-5.9 2-2.2.6-4.4 1-6.7 1-1.6 0-3-.2-4.4-.6a10 10 0 0 1-3.7-2c-1-.8-1.8-2-2.4-3.3-.6-1.4-1-3.1-1-5.1V50.2h-5.2v-9.4h5.3V27.7H188v13h8.4v9.5H188v17.2c0 1.3.3 2.3 1 3 .7.5 1.6.8 2.6.8s2-.1 2.9-.5c1-.3 1.9-.6 2.6-1l2.4 10zM223 82.6a24 24 0 0 1-9.3-1.7 19.6 19.6 0 0 1-11.2-11.5 23 23 0 0 1 0-16.2 19.6 19.6 0 0 1 11.2-11.5c2.7-1.1 5.8-1.7 9.3-1.7a21 21 0 0 1 16.2 6.5c1.9 1.9 3.3 4.2 4.3 6.7a22.4 22.4 0 0 1 0 16.3 19.7 19.7 0 0 1-11.1 11.4 24 24 0 0 1-9.4 1.7zM214 61.4c0 3.2.8 5.8 2.5 7.7 1.8 2 4 3 6.6 3a8.2 8.2 0 0 0 6.5-3c.8-1 1.4-2 1.9-3.4.5-1.3.7-2.8.7-4.3 0-3.3-.9-5.9-2.6-7.8-1.7-2-3.9-3-6.5-3a8.5 8.5 0 0 0-6.5 3c-.8 1-1.5 2-2 3.4a13 13 0 0 0-.6 4.4zM277.3 51.5c-3 0-5.8.5-8.3 1.5a10 10 0 0 0-5.3 4.2v24.7h-12.5V40.8h11.5V49c1.4-2.8 3.2-5 5.5-6.5 2.2-1.6 4.5-2.4 7-2.5h1.3l.8.1v11.3zM282.8 88a18.2 18.2 0 0 0 5.4 1c1.5 0 2.7-.5 3.6-1.5.8-1 1.5-3 2.2-5.6l-15.6-41.1h12.9l9.5 30.3 8.3-30.3h11.7l-15.7 47.7a16.3 16.3 0 0 1-19 11.2c-1-.2-2.2-.5-3.3-1V88zM350.4 82.6c-3.1 0-5.9-.6-8.2-2a14.5 14.5 0 0 1-5.6-5.5v6.8h-10.9V24.7h12.6v22.8a14.9 14.9 0 0 1 13.4-7.5c2.6 0 5 .5 7.2 1.7 2.2 1 4 2.6 5.7 4.5a26.2 26.2 0 0 1 3.6 23.6c-1 2.6-2.4 4.9-4.1 6.8a18.4 18.4 0 0 1-13.7 6zm-3.5-10.5a9.5 9.5 0 0 0 9-6.4 12.4 12.4 0 0 0-1.9-11.9 8.1 8.1 0 0 0-6.6-3.2c-1.9 0-3.7.7-5.4 2-1.6 1.4-2.9 3.1-3.8 5.2v8.6A9.8 9.8 0 0 0 347 72zM375.7 24.7h12.5v42.5c0 3.2 1.3 4.7 4 4.7a8.8 8.8 0 0 0 4.1-1l1.7 9.3a28.6 28.6 0 0 1-11.1 2.4c-3.6 0-6.4-1-8.3-2.8-2-2-3-4.6-3-8.2V24.7zM421.6 82.6a24 24 0 0 1-9.3-1.7A19.7 19.7 0 0 1 401 69.4a23 23 0 0 1 4.2-23c2-2 4.2-3.5 7-4.7 2.7-1.1 5.8-1.7 9.3-1.7a21 21 0 0 1 16.2 6.5c2 1.9 3.3 4.2 4.3 6.7a22.5 22.5 0 0 1-4.2 23c-1.9 2-4.2 3.6-7 4.7a24 24 0 0 1-9.3 1.7zm-9.1-21.2c0 3.2.8 5.8 2.5 7.7 1.8 2 4 3 6.6 3a8.3 8.3 0 0 0 6.5-3c.8-1 1.4-2 1.9-3.4.5-1.3.7-2.8.7-4.3 0-3.3-.9-5.9-2.6-7.8-1.7-2-3.9-3-6.5-3a8.5 8.5 0 0 0-6.5 3c-.8 1-1.5 2-2 3.4s-.6 2.8-.6 4.4zM477.4 81.9l-10.7-16.6-4.4 4.6v12h-12.5V24.7h12.5v33.1l13.9-17h13.3l-14.8 17.7 16 23.4h-13.3z"></path> </g> </svg>